<svg width="125" height="29" viewBox="0 0 125 29" fill="none" xmlns="http://www.w3.org/2000/svg">
<path fill-rule="evenodd" clip-rule="evenodd" d="M6.12609 2.29793C6.28034 2.10936 6.51109 2 6.7547 2H6.90275H21.5365H21.6818C21.9213 2 22.1485 2.10568 22.3028 2.28879L22.3964 2.39986L28.2531 9.34974L28.4233 9.55175C28.6788 9.85495 28.678 10.2983 28.4214 10.6006L28.2505 10.802L15.1004 26.2948L14.8611 26.5767C14.5357 26.96 13.9438 26.9586 13.6203 26.5738L13.3824 26.2907L0.35719 10.798L0.190498 10.5997C-0.0608427 10.3007 -0.0637778 9.86522 0.183511 9.5629L0.347515 9.3624L6.03236 2.41252L6.12609 2.29793ZM7.8206 4.24895C7.57699 4.24895 7.34624 4.35831 7.19199 4.54688L3.10511 9.54321C2.85782 9.84553 2.86075 10.2811 3.11209 10.58L13.6285 23.0887C13.952 23.4736 14.5439 23.475 14.8693 23.0917L25.476 10.5954C25.7326 10.2931 25.7334 9.84972 25.4779 9.54652L21.257 4.53774C21.1027 4.35463 20.8754 4.24895 20.636 4.24895H7.8206Z" fill="url(#paint0_linear_193_1332)"/>
<path d="M14.3142 6.68555V6.68555C15.2111 9.10945 17.1222 11.0206 19.5461 11.9175V11.9175V11.9175C17.1222 12.8144 15.2111 14.7255 14.3142 17.1494V17.1494V17.1494C13.4173 14.7255 11.5062 12.8144 9.08224 11.9175V11.9175V11.9175C11.5062 11.0206 13.4173 9.10945 14.3142 6.68555V6.68555Z" fill="url(#paint1_linear_193_1332)"/>
<path d="M117.27 17.1924C117.621 18.4604 118.572 19.0945 120.123 19.0945C121.122 19.0945 121.877 18.7572 122.39 18.0827L124.494 19.2968C123.496 20.7403 122.025 21.462 120.083 21.462C118.41 21.462 117.068 20.9561 116.056 19.9443C115.044 18.9326 114.538 17.6578 114.538 16.1199C114.538 14.5955 115.038 13.3275 116.036 12.3157C117.034 11.2905 118.316 10.7778 119.881 10.7778C121.364 10.7778 122.585 11.2905 123.543 12.3157C124.514 13.3409 125 14.609 125 16.1199C125 16.4572 124.966 16.8146 124.899 17.1924H117.27ZM117.23 15.1689H122.39C122.241 14.4809 121.931 13.9682 121.459 13.631C121 13.2937 120.474 13.1251 119.881 13.1251C119.179 13.1251 118.599 13.3072 118.14 13.6715C117.682 14.0222 117.378 14.5213 117.23 15.1689Z" fill="white"/>
<path d="M110.838 12.801C111.08 12.1534 111.478 11.6678 112.032 11.344C112.598 11.0203 113.225 10.8584 113.913 10.8584V13.7723C113.117 13.6778 112.402 13.8397 111.768 14.2579C111.148 14.6761 110.838 15.3708 110.838 16.3421V21.1783H108.227V11.0608H110.838V12.801Z" fill="white"/>
<path d="M103.226 11.061H105.837V21.1786H103.226V20.0454C102.592 20.9897 101.587 21.4619 100.211 21.4619C99.105 21.4619 98.1877 21.0909 97.4592 20.349C96.7442 19.607 96.3867 18.5818 96.3867 17.2732V11.061H98.9971V16.9495C98.9971 17.624 99.1792 18.1433 99.5434 18.5076C99.9077 18.8583 100.393 19.0337 101 19.0337C101.675 19.0337 102.214 18.8246 102.619 18.4064C103.024 17.9882 103.226 17.3609 103.226 16.5245V11.061Z" fill="white"/>
<path d="M90.5158 21.462C88.9915 21.462 87.7166 20.9494 86.6914 19.9241C85.6796 18.8989 85.1738 17.6308 85.1738 16.1199C85.1738 14.609 85.6796 13.3409 86.6914 12.3157C87.7166 11.2905 88.9915 10.7778 90.5158 10.7778C91.5006 10.7778 92.3977 11.0139 93.2071 11.4861C94.0165 11.9582 94.6303 12.5922 95.0485 13.3882L92.8024 14.7034C92.6001 14.2853 92.2898 13.9547 91.8716 13.7119C91.4669 13.4691 91.0082 13.3477 90.4956 13.3477C89.7132 13.3477 89.0657 13.6108 88.553 14.1369C88.0404 14.6495 87.7841 15.3105 87.7841 16.1199C87.7841 16.9158 88.0404 17.5768 88.553 18.103C89.0657 18.6156 89.7132 18.8719 90.4956 18.8719C91.0217 18.8719 91.4871 18.7572 91.8918 18.5279C92.31 18.2851 92.6203 17.9546 92.8226 17.5364L95.089 18.8314C94.6438 19.6273 94.0165 20.2681 93.2071 20.7538C92.3977 21.2259 91.5006 21.462 90.5158 21.462Z" fill="white"/>
<path d="M76.2269 17.1924C76.5776 18.4604 77.5287 19.0945 79.08 19.0945C80.0783 19.0945 80.8337 18.7572 81.3464 18.0827L83.4508 19.2968C82.4525 20.7403 80.9821 21.462 79.0395 21.462C77.3668 21.462 76.0245 20.9561 75.0128 19.9443C74.001 18.9326 73.4951 17.6578 73.4951 16.1199C73.4951 14.5955 73.9943 13.3275 74.9925 12.3157C75.9908 11.2905 77.2723 10.7778 78.8372 10.7778C80.3211 10.7778 81.542 11.2905 82.4998 12.3157C83.471 13.3409 83.9567 14.609 83.9567 16.1199C83.9567 16.4572 83.923 16.8146 83.8555 17.1924H76.2269ZM76.1864 15.1689H81.3464C81.198 14.4809 80.8877 13.9682 80.4155 13.631C79.9569 13.2937 79.4308 13.1251 78.8372 13.1251C78.1357 13.1251 77.5556 13.3072 77.097 13.6715C76.6383 14.0222 76.3348 14.5213 76.1864 15.1689Z" fill="white"/>
<path d="M66.9049 21.4616C65.502 21.4616 64.3216 21.1514 63.3638 20.5308C62.406 19.8968 61.7315 19.0402 61.3403 17.961L63.728 16.5647C64.2811 18.0082 65.3671 18.7299 66.9859 18.7299C67.7683 18.7299 68.3416 18.5883 68.7059 18.305C69.0701 18.0217 69.2522 17.6642 69.2522 17.2325C69.2522 16.7334 69.0296 16.3489 68.5844 16.0791C68.1393 15.7958 67.3434 15.4923 66.1967 15.1685C65.5627 14.9797 65.0231 14.7908 64.5779 14.6019C64.1462 14.4131 63.7078 14.1635 63.2626 13.8532C62.8309 13.5295 62.5004 13.1248 62.2711 12.6391C62.0418 12.1535 61.9271 11.5869 61.9271 10.9394C61.9271 9.65782 62.379 8.63932 63.2828 7.88387C64.2002 7.11494 65.2996 6.73047 66.5812 6.73047C67.7278 6.73047 68.7328 7.01376 69.5962 7.58034C70.4731 8.13344 71.1543 8.90912 71.64 9.90739L69.2927 11.2631C68.7261 10.049 67.8223 9.44198 66.5812 9.44198C66.0011 9.44198 65.5424 9.57688 65.2052 9.84668C64.8814 10.103 64.7195 10.4402 64.7195 10.8584C64.7195 11.3036 64.9017 11.6678 65.2659 11.9511C65.6436 12.2209 66.3586 12.5177 67.4108 12.8415C67.8425 12.9764 68.1663 13.0843 68.3821 13.1652C68.6114 13.2327 68.915 13.3474 69.2927 13.5092C69.6839 13.6576 69.9807 13.7993 70.183 13.9342C70.3989 14.0691 70.6417 14.2512 70.9115 14.4805C71.1813 14.7099 71.3836 14.9459 71.5185 15.1888C71.6669 15.4316 71.7883 15.7284 71.8828 16.0791C71.9907 16.4164 72.0447 16.7873 72.0447 17.192C72.0447 18.5006 71.5658 19.5393 70.608 20.3082C69.6637 21.0772 68.4293 21.4616 66.9049 21.4616Z" fill="white"/>
<path d="M55.8098 7.01416C57.1723 7.01416 58.3189 7.47282 59.2497 8.39015C60.1805 9.30748 60.6459 10.4339 60.6459 11.7694C60.6459 13.1049 60.1805 14.2314 59.2497 15.1487C58.3189 16.066 57.1723 16.5247 55.8098 16.5247H53.3208V21.1788H50.5284V7.01416H55.8098ZM55.8098 13.9143C56.4033 13.9143 56.8957 13.712 57.2869 13.3073C57.6781 12.8891 57.8737 12.3765 57.8737 11.7694C57.8737 11.1489 57.6781 10.6362 57.2869 10.2315C56.8957 9.82684 56.4033 9.62449 55.8098 9.62449H53.3208V13.9143H55.8098Z" fill="white"/>
<path d="M45.1139 7.01416H47.9064V21.1788H45.1139V7.01416Z" fill="white"/>
<path d="M35.5131 21.1788L30.7579 7.01416H33.7931L37.2534 17.9007L40.6933 7.01416H43.7488L38.9733 21.1788H35.5131Z" fill="white"/>
<defs>
<linearGradient id="paint0_linear_193_1332" x1="9.85113" y1="1.2041" x2="14.4239" y2="26.8425" gradientUnits="userSpaceOnUse">
<stop stop-color="#94E6FF"/>
<stop offset="1" stop-color="#3B68FE"/>
</linearGradient>
<linearGradient id="paint1_linear_193_1332" x1="14.3142" y1="6.68555" x2="14.3142" y2="17.1494" gradientUnits="userSpaceOnUse">
<stop stop-color="#FFD234"/>
<stop offset="1" stop-color="#E98C6F"/>
</linearGradient>
</defs>
</svg>
