<svg width="125" height="29" viewBox="0 0 125 29" fill="none" xmlns="http://www.w3.org/2000/svg">
<g clip-path="url(#clip0_12_5)">
<path d="M31.0674 14.4342C31.0027 10.3131 34.2989 6.82688 39.0358 6.89151C40.2486 6.89151 41.2864 7.03978 42.1608 7.35912C43.0543 7.65566 43.712 7.93318 44.1149 8.1879V10.6514C43.731 10.3321 43.1151 9.99372 42.2445 9.63256C41.3739 9.24858 40.3094 9.0585 39.0358 9.0585C35.5306 9.0585 33.4701 11.4156 33.4701 14.4342C33.4701 17.4299 35.6143 19.8098 38.6556 19.8098C40.336 19.8098 41.716 19.1521 42.5638 18.5134V15.3884H38.2489V13.2214H44.8791V21.6574H42.5638V20.9123C41.7122 21.4446 40.355 21.973 38.6556 21.973C34.1886 21.9768 31.0027 18.5552 31.0674 14.4342Z" fill="white"/>
<path d="M46.6992 16.172C46.6992 12.9634 49.0791 10.3516 52.436 10.3516C54.029 10.3516 55.3672 10.9674 56.1313 11.7316V10.6709H58.4048V21.6541H56.0895L56.1123 20.5288C55.39 21.2739 54.2229 21.9735 52.436 21.9735C49.0791 21.9735 46.6992 19.3807 46.6992 16.172ZM56.2606 16.153C56.2606 13.7731 54.6448 12.3931 52.6071 12.3931C50.5466 12.3931 48.9955 14.0735 48.9955 16.153C48.9955 18.2364 50.5466 19.9357 52.6071 19.9357C54.6448 19.9357 56.2606 18.5519 56.2606 16.153Z" fill="white"/>
<path d="M77.9984 14.9016V21.6573H75.7022V15.1335C75.7022 13.3695 75.0635 12.3697 73.558 12.3697C72.178 12.3697 70.7941 13.4113 70.7941 15.4719V21.6535H68.4979V15.1297C68.4979 13.3657 67.8592 12.3659 66.3537 12.3659C65.0801 12.3659 63.7837 13.2593 63.6127 15.0423V21.6497H61.3164V10.6665H63.6127V11.9857C63.7419 11.6891 64.4833 10.3281 66.6921 10.3281C68.2432 10.3281 69.4559 10.944 70.1554 12.1339C70.6649 11.1797 71.813 10.3281 73.8963 10.3281C76.3637 10.3319 77.9984 11.883 77.9984 14.9016Z" fill="white"/>
<path d="M79.6992 16.1732C79.6992 12.9646 82.0791 10.3528 85.436 10.3528C87.029 10.3528 88.3672 10.9686 89.1313 11.7328V7.22773L91.4276 6.84375V21.6515H89.0895L89.1123 20.5262C88.39 21.2713 87.2229 21.9709 85.436 21.9709C82.0791 21.9747 79.6992 19.3819 79.6992 16.1732ZM89.2606 16.1542C89.2606 13.7743 87.6449 12.3943 85.6071 12.3943C83.5466 12.3943 81.9308 14.0747 81.9308 16.1542C81.9308 18.2376 83.5466 19.9369 85.6071 19.9369C87.6449 19.9369 89.2606 18.5531 89.2606 16.1542Z" fill="white"/>
<path d="M93.3398 16.172C93.3398 12.9634 96.0163 10.3516 99.3542 10.3516C102.688 10.3516 105.369 12.9634 105.369 16.172C105.369 19.3807 102.692 21.9735 99.3542 21.9735C96.0163 21.9735 93.3398 19.3807 93.3398 16.172ZM103.156 16.172C103.156 14.0887 101.521 12.4121 99.3542 12.4121C97.1872 12.4121 95.5525 14.0925 95.5525 16.172C95.5525 18.2326 97.1872 19.9129 99.3542 19.9129C101.521 19.9129 103.156 18.2364 103.156 16.172Z" fill="white"/>
<path d="M124.081 14.9016V21.6573H121.784V15.1335C121.784 13.3695 121.146 12.3697 119.64 12.3697C118.26 12.3697 116.876 13.4113 116.876 15.4719V21.6535H114.58V15.1297C114.58 13.3657 113.941 12.3659 112.436 12.3659C111.162 12.3659 109.866 13.2593 109.695 15.0423V21.6497H107.402V10.6665H109.699V11.9857C109.828 11.6891 110.569 10.3281 112.778 10.3281C114.329 10.3281 115.542 10.944 116.241 12.1339C116.751 11.1797 117.899 10.3281 119.982 10.3281C122.446 10.3319 124.081 11.883 124.081 14.9016Z" fill="white"/>
<path d="M11.5351 18.0312H11.5312V25.1975H11.5351V18.0312Z" fill="#01D370"/>
<path d="M11.5351 18.0312H11.5312V25.1975H11.5351V18.0312Z" fill="#01D370"/>
<path d="M10.9495 14.3674L3.77945 17.7586C3.56655 17.8612 3.42969 18.0817 3.42969 18.3212V24.9058C3.42969 25.1492 3.56655 25.3659 3.77945 25.4685L10.9533 28.8635C11.1358 28.9509 11.3335 28.9927 11.5312 28.9927V14.2344C11.3335 14.2382 11.1358 14.2838 10.9495 14.3674Z" fill="#00FF86"/>
<path d="M11.2151 0.0760336L7.85059 1.7412V6.21584L3.91199 8.14712V3.63446L0.383976 5.38706C0.148269 5.50491 0 5.74442 0 6.00294V14.6253C0 15.1309 0.536044 15.4655 0.988451 15.2412L10.9224 10.3673C11.1163 10.2723 11.3254 10.2267 11.5345 10.2267V0C11.4242 0 11.314 0.026611 11.2151 0.0760336Z" fill="#00FF86"/>
<path d="M19.2868 17.7628L12.1129 14.3717C11.9266 14.2804 11.7289 14.2386 11.5312 14.2424V29.0008C11.7289 29.0008 11.9342 28.959 12.1167 28.8715L19.2868 25.4766C19.4997 25.3739 19.6367 25.1534 19.6367 24.9139V18.3293C19.6367 18.086 19.4997 17.8655 19.2868 17.7628Z" fill="#01D370"/>
<path d="M22.6855 5.38326L19.1575 3.63066V8.14713L15.2151 6.21584V1.7412L11.8506 0.0760336C11.7518 0.026611 11.6377 0 11.5312 0V10.2267C11.7403 10.2267 11.9494 10.2761 12.1433 10.3673L22.0773 15.2412C22.5335 15.4655 23.0658 15.1309 23.0658 14.6253V6.00294C23.0696 5.74062 22.9213 5.50111 22.6855 5.38326Z" fill="#01D370"/>
</g>
<defs>
<clipPath id="clip0_12_5">
<rect width="125" height="29" fill="white"/>
</clipPath>
</defs>
</svg>
