<svg width="23" height="29" viewBox="0 0 23 29" fill="none" xmlns="http://www.w3.org/2000/svg">
<g clip-path="url(#clip0_12_18)">
<path d="M11.5351 18.0312H11.5312V25.1975H11.5351V18.0312Z" fill="#01D370"/>
<path d="M11.5351 18.0312H11.5312V25.1975H11.5351V18.0312Z" fill="#01D370"/>
<path d="M10.9495 14.3674L3.77945 17.7586C3.56655 17.8612 3.42969 18.0817 3.42969 18.3212V24.9058C3.42969 25.1492 3.56655 25.3659 3.77945 25.4685L10.9533 28.8635C11.1358 28.9509 11.3335 28.9927 11.5312 28.9927V14.2344C11.3335 14.2382 11.1358 14.2838 10.9495 14.3674Z" fill="#00FF86"/>
<path d="M11.2151 0.0760336L7.85059 1.7412V6.21584L3.91199 8.14712V3.63446L0.383976 5.38706C0.148269 5.50491 0 5.74442 0 6.00294V14.6253C0 15.1309 0.536044 15.4655 0.988451 15.2412L10.9224 10.3673C11.1163 10.2723 11.3254 10.2267 11.5345 10.2267V0C11.4242 0 11.314 0.026611 11.2151 0.0760336Z" fill="#00FF86"/>
<path d="M19.2868 17.7628L12.1129 14.3717C11.9266 14.2804 11.7289 14.2386 11.5312 14.2424V29.0008C11.7289 29.0008 11.9342 28.959 12.1167 28.8715L19.2868 25.4766C19.4997 25.3739 19.6367 25.1534 19.6367 24.9139V18.3293C19.6367 18.086 19.4997 17.8655 19.2868 17.7628Z" fill="#01D370"/>
<path d="M22.6855 5.38326L19.1575 3.63066V8.14713L15.2151 6.21584V1.7412L11.8506 0.0760336C11.7518 0.026611 11.6377 0 11.5312 0V10.2267C11.7403 10.2267 11.9494 10.2761 12.1433 10.3673L22.0773 15.2412C22.5335 15.4655 23.0658 15.1309 23.0658 14.6253V6.00294C23.0696 5.74062 22.9213 5.50111 22.6855 5.38326Z" fill="#01D370"/>
</g>
<defs>
<clipPath id="clip0_12_18">
<rect width="23" height="29" fill="white"/>
</clipPath>
</defs>
</svg>
