<svg width="29" height="29" viewBox="0 0 29 29" fill="none" xmlns="http://www.w3.org/2000/svg">
<path fill-rule="evenodd" clip-rule="evenodd" d="M6.20865 2.30195C6.36497 2.11084 6.59883 2 6.84573 2H6.99577H21.8268H21.974C22.2167 2 22.447 2.1071 22.6034 2.29268L22.6982 2.40525L28.6338 9.44879L28.8063 9.65352C29.0653 9.96081 29.0645 10.4102 28.8044 10.7165L28.6312 10.9206L15.3039 26.6222L15.0614 26.9079C14.7316 27.2964 14.1317 27.2949 13.8039 26.9049L13.5627 26.6181L0.362003 10.9165L0.193065 10.7156C-0.0616626 10.4126 -0.0646372 9.97121 0.185984 9.66482L0.352198 9.46162L6.11366 2.41808L6.20865 2.30195ZM7.92599 4.27926C7.67909 4.27926 7.44524 4.3901 7.28891 4.5812L3.14695 9.64487C2.89633 9.95126 2.8993 10.3927 3.15403 10.6956L13.8122 23.3729C14.1401 23.763 14.7399 23.7644 15.0697 23.3759L25.8193 10.7112C26.0794 10.4049 26.0802 9.9555 25.8212 9.64822L21.5435 4.57194C21.3871 4.38636 21.1568 4.27926 20.9141 4.27926H7.92599Z" fill="url(#paint0_linear_193_1349)"/>
<path d="M14.5071 6.74854V6.74854C15.4161 9.20511 17.353 11.142 19.8095 12.051V12.051V12.051C17.353 12.96 15.4161 14.8968 14.5071 17.3534V17.3534V17.3534C13.5981 14.8968 11.6612 12.96 9.20465 12.051V12.051V12.051C11.6612 11.142 13.5981 9.20511 14.5071 6.74854V6.74854Z" fill="url(#paint1_linear_193_1349)"/>
<defs>
<linearGradient id="paint0_linear_193_1349" x1="9.98389" y1="1.19337" x2="14.6183" y2="27.1772" gradientUnits="userSpaceOnUse">
<stop stop-color="#94E6FF"/>
<stop offset="1" stop-color="#3B68FE"/>
</linearGradient>
<linearGradient id="paint1_linear_193_1349" x1="14.5071" y1="6.74854" x2="14.5071" y2="17.3534" gradientUnits="userSpaceOnUse">
<stop stop-color="#FFD234"/>
<stop offset="1" stop-color="#E98C6F"/>
</linearGradient>
</defs>
</svg>
